<?xml version="1.0" encoding="UTF-8" standalone="no"?>
<!-- Created with Inkscape (http://www.inkscape.org/) -->

<svg
   xmlns:dc="http://purl.org/dc/elements/1.1/"
   xmlns:cc="http://creativecommons.org/ns#"
   xmlns:rdf="http://www.w3.org/1999/02/22-rdf-syntax-ns#"
   xmlns:svg="http://www.w3.org/2000/svg"
   xmlns="http://www.w3.org/2000/svg"
   xmlns:sodipodi="http://sodipodi.sourceforge.net/DTD/sodipodi-0.dtd"
   xmlns:inkscape="http://www.inkscape.org/namespaces/inkscape"
   width="100"
   height="100"
   viewBox="0 0 26.458332 26.458333"
   version="1.1"
   id="svg8"
   sodipodi:docname="p.svg"
   inkscape:version="0.92.3 (2405546, 2018-03-11)">
  <defs
     id="defs2" />
  <sodipodi:namedview
     id="base"
     pagecolor="#ffffff"
     bordercolor="#666666"
     borderopacity="1.0"
     inkscape:pageopacity="0.0"
     inkscape:pageshadow="2"
     inkscape:zoom="0.70710678"
     inkscape:cx="41.187236"
     inkscape:cy="109.54268"
     inkscape:document-units="px"
     inkscape:current-layer="layer1"
     showgrid="false"
     units="px"
     inkscape:window-width="934"
     inkscape:window-height="691"
     inkscape:window-x="957"
     inkscape:window-y="190"
     inkscape:window-maximized="0" />
  <metadata
     id="metadata5">
    <rdf:RDF>
      <cc:Work
         rdf:about="">
        <dc:format>image/svg+xml</dc:format>
        <dc:type
           rdf:resource="http://purl.org/dc/dcmitype/StillImage" />
        <dc:title></dc:title>
      </cc:Work>
    </rdf:RDF>
  </metadata>
  <g
     inkscape:label="Layer 1"
     inkscape:groupmode="layer"
     id="layer1"
     transform="translate(0,-270.54164)">
    <g
       aria-label="P"
       style="font-style:normal;font-weight:normal;font-size:28.77898979px;line-height:1.25;font-family:sans-serif;letter-spacing:0px;word-spacing:0px;fill:#000000;fill-opacity:1;stroke:none;stroke-width:0.71947473"
       id="text845"
       transform="matrix(1.3556244,0,0,1.3851607,-1.0671058,-111.98951)">
      <path
         d="m 9.8115395,286.10956 c 0,0 2.2799465,0.27444 3.8208205,-1.15398 0.705754,-0.65426 1.082023,-1.50827 1.082023,-2.61371 0,-1.18976 -0.35599,-2.16873 -1.06797,-2.93692 -0.711981,-0.77756 -1.690954,-1.16634 -2.936919,-1.16634 H 8.6719192 v 12.74538 c 0,0.99303 0.1311542,1.6769 0.3934627,2.05163 0.2716767,0.37473 0.763505,0.56209 1.4754851,0.56209 v 0.49183 H 4.6108215 v -0.49183 c 0.7119802,0 1.1991245,-0.19673 1.461433,-0.59019 0.2716767,-0.39347 0.407515,-1.04924 0.407515,-1.96732 v -10.32839 c 0,-0.98366 -0.1358383,-1.66754 -0.407515,-2.05163 -0.2623085,-0.38409 -0.7494528,-0.57614 -1.461433,-0.57614 v -0.47778 h 6.0143595 c 1.967313,0 3.522428,0.43562 4.665344,1.30686 1.152283,0.87124 1.728425,1.99542 1.728425,3.37254 0,1.36775 -0.543568,2.36747 -1.503589,3.16175 -1.926205,1.59367 -5.7031005,1.29451 -5.7031005,1.29451 z"
         style="font-style:normal;font-variant:normal;font-weight:normal;font-stretch:normal;font-family:Perpetua;-inkscape-font-specification:Perpetua;fill:#000000;fill-opacity:1;stroke:none;stroke-width:0.71947473;stroke-opacity:1"
         id="path847"
         inkscape:connector-curvature="0"
         sodipodi:nodetypes="csscsccccccccsscccscsscc" />
    </g>
  </g>
</svg>
